<?xml version="1.0" encoding="UTF-8" standalone="no"?>
<svg
   xmlns:dc="http://purl.org/dc/elements/1.1/"
   xmlns:cc="http://creativecommons.org/ns#"
   xmlns:rdf="http://www.w3.org/1999/02/22-rdf-syntax-ns#"
   xmlns:svg="http://www.w3.org/2000/svg"
   xmlns="http://www.w3.org/2000/svg"
   xmlns:sodipodi="http://sodipodi.sourceforge.net/DTD/sodipodi-0.dtd"
   xmlns:inkscape="http://www.inkscape.org/namespaces/inkscape"
   version="1.1"
   width="500"
   height="180"
   id="svg2"
   inkscape:version="0.91 r13725"
   sodipodi:docname="rf_receiver.svg">
  <metadata
     id="metadata102">
    <rdf:RDF>
      <cc:Work
         rdf:about="">
        <dc:format>image/svg+xml</dc:format>
        <dc:type
           rdf:resource="http://purl.org/dc/dcmitype/StillImage" />
        <dc:title />
      </cc:Work>
    </rdf:RDF>
  </metadata>
  <defs
     id="defs100" />
  <sodipodi:namedview
     pagecolor="#ffffff"
     bordercolor="#666666"
     borderopacity="1"
     objecttolerance="10"
     gridtolerance="10"
     guidetolerance="10"
     inkscape:pageopacity="0"
     inkscape:pageshadow="2"
     inkscape:window-width="1366"
     inkscape:window-height="716"
     id="namedview98"
     showgrid="false"
     inkscape:zoom="1.6390081"
     inkscape:cx="300.68761"
     inkscape:cy="95.014714"
     inkscape:window-x="-8"
     inkscape:window-y="-8"
     inkscape:window-maximized="1"
     inkscape:current-layer="svg2" />
  <style
     id="style4">
polyline,polygon,rect,line,path {fill:none;stroke-width:1;stroke:#000;}
text {font-family:sans-serif;fill:#000;}
</style>
  <polyline
     points="0,0 10,19 20,0"
     id="polyline6"
     transform="matrix(1.2958988,0,0,0.99954421,64.758149,0.04032598)"
     style="fill:none;stroke:#000000;stroke-width:1" />
  <polyline
     points="10,0 10,61.5 45,61.5"
     id="polyline8"
     transform="matrix(1.2958988,0,0,0.99954421,64.758149,0.04032598)"
     style="fill:none;stroke:#000000;stroke-width:1" />
  <polygon
     points="45,61.5 37,57 37,66 "
     style="fill:#000000;stroke:#000000;stroke-width:1"
     id="polygon10"
     transform="matrix(1.2958988,0,0,0.99954421,64.758149,0.04032598)" />
  <polygon
     points="75,61.5 45,84 45,39 "
     style="fill:#fbfbcd;stroke:#000000;stroke-width:1"
     id="polygon12"
     transform="matrix(1.2958988,0,0,0.99954421,64.758149,0.04032598)" />
  <line
     x1="161.95056"
     y1="61.512295"
     x2="207.30702"
     y2="61.512295"
     id="line14"
     style="fill:none;stroke:#000000;stroke-width:1.138116" />
  <polygon
     points="110,61.5 102,57 102,66 "
     style="fill:#000000;stroke:#000000;stroke-width:1"
     id="polygon16"
     transform="matrix(1.2958988,0,0,0.99954421,64.758149,0.04032598)" />
  <rect
     x="207.30702"
     y="39.022549"
     width="58.315449"
     height="44.979488"
     style="fill:#ff2d09;stroke:#000000;stroke-width:1.138116"
     id="rect18" />
  <line
     x1="207.30702"
     y1="39.022549"
     x2="265.62247"
     y2="84.002037"
     id="line20"
     style="fill:none;stroke:#000000;stroke-width:1.138116" />
  <line
     x1="265.62247"
     y1="39.022549"
     x2="207.30702"
     y2="84.002037"
     id="line22"
     style="fill:none;stroke:#000000;stroke-width:1.138116" />
  <line
     x1="265.62247"
     y1="61.080872"
     x2="312.27319"
     y2="61.080872"
     id="line24"
     style="fill:none;stroke:#000000;stroke-width:1.15424013" />
  <line
     x1="236.42772"
     y1="85.259293"
     x2="236.42772"
     y2="109.26109"
     id="line26"
     style="fill:none;stroke:#000000;stroke-width:0.94269967" />
  <polygon
     points="182,57 182,66 190,61.5 "
     style="fill:#000000;stroke:#000000;stroke-width:1"
     id="polygon28"
     transform="matrix(1.2958988,0,0,0.99954421,76.350526,-0.56979914)" />
  <polygon
     points="132.5,84 128,91 137,91 "
     style="fill:#000000;stroke:#000000;stroke-width:1"
     id="polygon30"
     transform="matrix(1.2958988,0,0,0.99954421,64.758149,0.04032598)" />
  <rect
     x="207.91714"
     y="109.8342"
     width="58.315449"
     height="44.979488"
     style="fill:#fc0656;stroke:#000000;stroke-width:1.138116"
     id="rect32" />
  <line
     x1="214.39664"
     y1="131.32442"
     x2="227.35562"
     y2="131.32442"
     id="line34"
     style="fill:none;stroke:#000000;stroke-width:1.138116" />
  <line
     x1="227.35562"
     y1="117.3308"
     x2="227.35562"
     y2="147.31712"
     id="line36"
     style="fill:none;stroke:#000000;stroke-width:1.138116" />
  <line
     x1="246.79411"
     y1="131.32442"
     x2="259.75311"
     y2="131.32442"
     id="line38"
     style="fill:none;stroke:#000000;stroke-width:1.138116" />
  <line
     x1="246.79411"
     y1="117.3308"
     x2="246.79411"
     y2="147.31712"
     id="line40"
     style="fill:none;stroke:#000000;stroke-width:1.138116" />
  <rect
     x="231.24332"
     y="118.83011"
     width="11.66309"
     height="26.987694"
     id="rect42"
     style="fill:none;stroke:#000000;stroke-width:1.138116" />
  <rect
     x="323.18143"
     y="39.022549"
     width="58.315449"
     height="44.979488"
     style="fill:#ffc8ff;stroke:#000000;stroke-width:1.138116"
     id="rect44" />
  <path
     d="m 329.66092,52.016625 c 22.03028,-16.992252 24.62207,18.99134 45.35646,0"
     id="path46"
     inkscape:connector-curvature="0"
     style="fill:none;stroke:#000000;stroke-width:1.138116" />
  <path
     d="m 329.66092,62.012067 c 22.03028,-16.992252 24.62207,18.99134 45.35646,0"
     id="path48"
     inkscape:connector-curvature="0"
     style="fill:none;stroke:#000000;stroke-width:1.138116" />
  <path
     d="m 329.66092,72.007509 c 22.03028,-16.992252 24.62207,18.99134 45.35646,0"
     id="path50"
     inkscape:connector-curvature="0"
     style="fill:none;stroke:#000000;stroke-width:1.138116" />
  <line
     x1="358.17068"
     y1="48.018448"
     x2="349.0994"
     y2="58.013889"
     id="line52"
     style="fill:none;stroke:#000000;stroke-width:1.138116" />
  <line
     x1="358.17068"
     y1="68.009331"
     x2="349.0994"
     y2="78.004776"
     id="line54"
     style="fill:none;stroke:#000000;stroke-width:1.138116" />
  <line
     x1="380.27661"
     y1="61.512295"
     x2="435.20798"
     y2="61.512295"
     id="line56"
     style="fill:none;stroke:#000000;stroke-width:1.25249851" />
  <polygon
     points="327,57 327,66 335,61.5 "
     style="fill:#000000;stroke:#000000;stroke-width:1"
     id="polygon64"
     transform="matrix(1.2958988,0,0,0.99954421,11.7839,0.65017301)" />
  <text
     x="109.35997"
     y="103.3345"
     id="text84"
     style="font-size:14px;font-family:sans-serif;fill:#000000">Amplifier</text>
  <text
     x="217.73972"
     y="28.767529"
     id="text86"
     style="font-size:14px;font-family:sans-serif;fill:#000000">Mixer</text>
  <text
     x="186.89781"
     y="171.88272"
     id="text88"
     style="font-size:14px;font-family:sans-serif;fill:#000000">Local Oscillator</text>
  <text
     x="335.02679"
     y="103.8047"
     id="text90"
     style="font-size:14px;font-family:sans-serif;fill:#000000">Filter</text>
  <flowRoot
     xml:space="preserve"
     id="flowRoot3430"
     style="fill:black;stroke:none;stroke-opacity:1;stroke-width:1px;stroke-linejoin:miter;stroke-linecap:butt;fill-opacity:1;font-family:sans-serif;font-style:normal;font-weight:normal;font-size:40px;line-height:125%;letter-spacing:0px;word-spacing:0px"><flowRegion
       id="flowRegion3432"><rect
         id="rect3434"
         width="60.402386"
         height="90.298515"
         x="247.7108"
         y="21.587719"
         style="fill:none;stroke:#000000;stroke-width:1" /></flowRegion><flowPara
       id="flowPara3436" /></flowRoot></svg>
